<?xml version="1.0" encoding="UTF-8"?>
<svg id="_圖層_2" data-name=" 圖層 2" xmlns="http://www.w3.org/2000/svg" version="1.1" viewBox="0 0 695 708.2">
  <defs>
    <style>
      .cls-1 {
        fill: #231815;
      }

      .cls-1, .cls-2, .cls-3, .cls-4, .cls-5, .cls-6, .cls-7, .cls-8, .cls-9, .cls-10, .cls-11, .cls-12, .cls-13, .cls-14, .cls-15, .cls-16, .cls-17, .cls-18, .cls-19 {
        stroke-width: 0px;
      }

      .cls-2 {
        fill: #e4be44;
      }

      .cls-3 {
        fill: #e889a8;
      }

      .cls-4 {
        fill: #954a82;
      }

      .cls-5 {
        fill: #977326;
      }

      .cls-6 {
        fill: #987426;
      }

      .cls-7 {
        fill: #944a82;
      }

      .cls-8 {
        fill: #89898a;
      }

      .cls-9 {
        fill: #40230f;
      }

      .cls-10 {
        fill: #302040;
      }

      .cls-11 {
        fill: #193f21;
      }

      .cls-12 {
        fill: #ebcf58;
      }

      .cls-13 {
        fill: #74bfdd;
      }

      .cls-14 {
        fill: #076fb8;
      }

      .cls-15 {
        fill: #9fa0a0;
      }

      .cls-16 {
        fill: #64c4d3;
      }

      .cls-17 {
        fill: #b5b6b6;
      }

      .cls-18 {
        fill: #fff;
      }

      .cls-19 {
        fill: #df76a7;
      }
    </style>
  </defs>
  <rect class="cls-4" x="179.5" y="232.1" width="14.6" height="14.6"/>
  <rect class="cls-4" x="164.8" y="232.1" width="14.6" height="14.6"/>
  <rect class="cls-4" x="238.2" y="246.7" width="14.6" height="14.6"/>
  <rect class="cls-4" x="223.5" y="246.7" width="14.6" height="14.6"/>
  <rect class="cls-4" x="267.5" y="261.4" width="14.6" height="14.6"/>
  <rect class="cls-4" x="252.8" y="261.4" width="14.6" height="14.6"/>
  <rect class="cls-4" x="120.8" y="261.4" width="14.6" height="14.6"/>
  <rect class="cls-4" x="106.2" y="261.4" width="14.6" height="14.6"/>
  <rect class="cls-4" x="282.2" y="276" width="14.6" height="14.6"/>
  <rect class="cls-4" x="91.5" y="276" width="14.6" height="14.6"/>
  <rect class="cls-4" x="282.2" y="290.8" width="14.6" height="14.6"/>
  <rect class="cls-4" x="91.5" y="290.8" width="14.6" height="14.6"/>
  <rect class="cls-4" x="282.2" y="305.4" width="14.6" height="14.6"/>
  <rect class="cls-4" x="91.5" y="305.4" width="14.6" height="14.6"/>
  <rect class="cls-4" x="296.8" y="320.1" width="14.6" height="14.6"/>
  <rect class="cls-4" x="296.8" y="334.7" width="14.6" height="14.6"/>
  <rect class="cls-10" x="208.9" y="334.7" width="14.6" height="14.6"/>
  <rect class="cls-10" x="164.8" y="334.7" width="14.6" height="14.6"/>
  <rect class="cls-4" x="296.8" y="349.5" width="14.6" height="14.6"/>
  <rect class="cls-10" x="208.9" y="349.5" width="14.6" height="14.6"/>
  <rect class="cls-10" x="164.8" y="349.5" width="14.6" height="14.6"/>
  <rect class="cls-4" x="296.8" y="364.1" width="14.6" height="14.6"/>
  <g>
    <polygon class="cls-19" points="194.1 246.7 179.5 246.7 164.8 246.7 164.8 261.4 179.5 261.4 194.1 261.4 208.9 261.4 223.5 261.4 223.5 246.7 208.9 246.7 194.1 246.7"/>
    <rect class="cls-19" x="238.2" y="261.4" width="14.6" height="14.6"/>
    <rect class="cls-19" x="135.4" y="261.4" width="14.6" height="14.6"/>
    <polygon class="cls-19" points="106.2 290.8 106.2 305.4 120.8 305.4 120.8 290.8 120.8 276 106.2 276 106.2 290.8"/>
    <polygon class="cls-19" points="282.2 290.8 282.2 276 267.5 276 267.5 290.8 267.5 305.4 282.2 305.4 282.2 290.8"/>
    <polygon class="cls-19" points="282.2 320.1 282.2 334.7 282.2 349.5 282.2 364.1 282.2 378.7 296.8 378.7 296.8 364.1 296.8 349.5 296.8 334.7 296.8 320.1 282.2 320.1"/>
    <polygon class="cls-19" points="91.5 334.7 91.5 349.5 91.5 364.1 91.5 378.7 106.2 378.7 106.2 364.1 106.2 349.5 106.2 334.7 106.2 320.1 91.5 320.1 91.5 334.7"/>
  </g>
  <rect class="cls-4" x="282.2" y="378.7" width="14.6" height="14.6"/>
  <rect class="cls-4" x="282.2" y="393.4" width="14.6" height="14.6"/>
  <rect class="cls-4" x="282.2" y="408.1" width="14.6" height="14.6"/>
  <rect class="cls-4" x="267.5" y="422.8" width="14.6" height="14.6"/>
  <rect class="cls-4" x="252.8" y="437.4" width="14.6" height="14.6"/>
  <rect class="cls-4" x="238.2" y="437.4" width="14.6" height="14.6"/>
  <rect class="cls-4" x="179.5" y="437.4" width="14.6" height="14.6"/>
  <rect class="cls-4" x="238.2" y="452.2" width="14.6" height="14.6"/>
  <path class="cls-3" d="M267.5,305.4v-29.4h-29.4v-14.6h-88.1v14.6h-29.4v29.4h-14.6v117.4h14.6v14.6h14.6v14.6h73.3v14.6h29.4v-14.6h14.6v-14.6h14.6v-14.6h14.6v-117.4h-14.6.2ZM223.5,334.7v29.4h-14.6v-29.4h14.6ZM179.5,349.5v14.6h-14.6v-29.4h14.6v14.6h0ZM164.8,290.8h14.6v-14.6h14.6v14.6h-14.6v14.6h-29.4v-14.6h14.7Z"/>
  <rect class="cls-4" x="194.1" y="452.2" width="14.6" height="14.6"/>
  <g>
    <polygon class="cls-7" points="208.9 232.1 194.1 232.1 194.1 246.7 208.9 246.7 223.5 246.7 223.5 232.1 208.9 232.1"/>
    <polygon class="cls-7" points="164.8 261.4 164.8 246.7 150.2 246.7 135.4 246.7 135.4 261.4 150.2 261.4 164.8 261.4"/>
    <polygon class="cls-7" points="91.5 349.5 91.5 334.7 91.5 320.1 76.8 320.1 76.8 334.7 76.8 349.5 76.8 364.1 76.8 378.7 91.5 378.7 91.5 364.1 91.5 349.5"/>
    <polygon class="cls-7" points="106.2 393.4 106.2 378.7 91.5 378.7 91.5 393.4 91.5 408.1 91.5 422.8 106.2 422.8 106.2 408.1 106.2 393.4"/>
    <rect class="cls-7" x="106.2" y="422.8" width="14.6" height="14.6"/>
    <polygon class="cls-7" points="135.4 437.4 120.8 437.4 120.8 452.2 135.4 452.2 150.2 452.2 150.2 437.4 135.4 437.4"/>
    <polygon class="cls-7" points="150.2 452.2 150.2 466.8 164.8 466.8 179.5 466.8 179.5 452.2 164.8 452.2 150.2 452.2"/>
  </g>
  <rect class="cls-4" x="223.5" y="466.8" width="14.6" height="14.6"/>
  <rect class="cls-4" x="208.9" y="466.8" width="14.6" height="14.6"/>
  <rect class="cls-16" x="476.8" y="246.7" width="14.6" height="14.6"/>
  <rect class="cls-16" x="491.4" y="246.7" width="14.6" height="14.6"/>
  <rect class="cls-16" x="506.2" y="246.7" width="14.6" height="14.6"/>
  <rect class="cls-16" x="520.8" y="246.7" width="14.6" height="14.6"/>
  <rect class="cls-16" x="447.5" y="261.4" width="14.6" height="14.6"/>
  <rect class="cls-16" x="550.1" y="261.4" width="14.6" height="14.6"/>
  <rect class="cls-16" x="418.1" y="276" width="14.6" height="14.6"/>
  <rect class="cls-16" x="579.5" y="276" width="14.6" height="14.6"/>
  <rect class="cls-16" x="418.1" y="290.8" width="14.6" height="14.6"/>
  <rect class="cls-16" x="579.5" y="290.8" width="14.6" height="14.6"/>
  <rect class="cls-16" x="403.5" y="320.1" width="14.6" height="14.6"/>
  <rect class="cls-16" x="594.1" y="320.1" width="14.6" height="14.6"/>
  <rect class="cls-16" x="403.5" y="334.7" width="14.6" height="14.6"/>
  <rect class="cls-11" x="476.8" y="334.7" width="14.6" height="14.6"/>
  <rect class="cls-11" x="520.8" y="334.7" width="14.6" height="14.6"/>
  <rect class="cls-16" x="594.1" y="334.7" width="14.6" height="14.6"/>
  <rect class="cls-16" x="403.5" y="349.5" width="14.6" height="14.6"/>
  <rect class="cls-11" x="476.8" y="349.5" width="14.6" height="14.6"/>
  <rect class="cls-11" x="520.8" y="349.5" width="14.6" height="14.6"/>
  <rect class="cls-16" x="594.1" y="349.5" width="14.6" height="14.6"/>
  <rect class="cls-16" x="403.5" y="364.1" width="14.6" height="14.6"/>
  <rect class="cls-16" x="594.1" y="364.1" width="14.6" height="14.6"/>
  <path class="cls-13" d="M579.5,305.4v-29.4h-29.4v-14.6h-88.1v14.6h-29.4v29.4h-14.6v117.4h14.6v14.6h14.6v14.6h14.6v14.6h29.4v-14.6h73.3v-14.6h14.6v-14.6h14.6v-117.4h-14.6.2ZM535.5,349.5v14.6h-14.6v-29.4h14.6v14.6h0ZM491.4,334.7v29.4h-14.6v-29.4h14.6ZM520.8,276v14.6h29.4v14.6h-29.4v-14.6h-14.6v-14.6h14.6,0Z"/>
  <g>
    <polygon class="cls-14" points="506.2 246.7 520.8 246.7 535.5 246.7 535.5 232.1 520.8 232.1 506.2 232.1 491.4 232.1 476.8 232.1 476.8 246.7 491.4 246.7 506.2 246.7"/>
    <polygon class="cls-14" points="476.8 261.4 476.8 246.7 462.1 246.7 447.5 246.7 447.5 261.4 462.1 261.4 476.8 261.4"/>
    <polygon class="cls-14" points="550.1 261.4 564.8 261.4 564.8 246.7 550.1 246.7 535.5 246.7 535.5 261.4 550.1 261.4"/>
    <polygon class="cls-14" points="447.5 276 447.5 261.4 432.7 261.4 418.1 261.4 418.1 276 432.7 276 447.5 276"/>
    <polygon class="cls-14" points="579.5 276 594.1 276 594.1 261.4 579.5 261.4 564.8 261.4 564.8 276 579.5 276"/>
    <polygon class="cls-14" points="594.1 305.4 594.1 320.1 608.8 320.1 608.8 305.4 608.8 290.8 608.8 276 594.1 276 594.1 290.8 594.1 305.4"/>
    <polygon class="cls-14" points="418.1 305.4 418.1 290.8 418.1 276 403.5 276 403.5 290.8 403.5 305.4 403.5 320.1 418.1 320.1 418.1 305.4"/>
    <polygon class="cls-14" points="608.8 320.1 608.8 334.7 608.8 349.5 608.8 364.1 608.8 378.7 623.5 378.7 623.5 364.1 623.5 349.5 623.5 334.7 623.5 320.1 608.8 320.1"/>
    <polygon class="cls-14" points="403.5 349.5 403.5 334.7 403.5 320.1 388.7 320.1 388.7 334.7 388.7 349.5 388.7 364.1 388.7 378.7 403.5 378.7 403.5 364.1 403.5 349.5"/>
    <polygon class="cls-14" points="594.1 393.4 594.1 408.1 594.1 422.8 608.8 422.8 608.8 408.1 608.8 393.4 608.8 378.7 594.1 378.7 594.1 393.4"/>
    <polygon class="cls-14" points="418.1 393.4 418.1 378.7 403.5 378.7 403.5 393.4 403.5 408.1 403.5 422.8 418.1 422.8 418.1 408.1 418.1 393.4"/>
    <rect class="cls-14" x="418.1" y="422.8" width="14.6" height="14.6"/>
    <rect class="cls-14" x="579.5" y="422.8" width="14.6" height="14.6"/>
    <polygon class="cls-14" points="462.1 437.4 447.5 437.4 432.7 437.4 432.7 452.2 447.5 452.2 447.5 466.8 462.1 466.8 462.1 452.2 462.1 437.4"/>
    <rect class="cls-14" x="506.2" y="437.4" width="14.6" height="14.6"/>
    <polygon class="cls-14" points="550.1 437.4 550.1 452.2 564.8 452.2 579.5 452.2 579.5 437.4 564.8 437.4 550.1 437.4"/>
    <rect class="cls-14" x="491.4" y="452.2" width="14.6" height="14.6"/>
    <polygon class="cls-14" points="520.8 452.2 520.8 466.8 535.5 466.8 550.1 466.8 550.1 452.2 535.5 452.2 520.8 452.2"/>
    <polygon class="cls-14" points="462.1 466.8 462.1 481.5 476.8 481.5 491.4 481.5 491.4 466.8 476.8 466.8 462.1 466.8"/>
  </g>
  <rect class="cls-6" x="350.3" y="125.1" width="17.9" height="17.9"/>
  <rect class="cls-6" x="368.2" y="125.1" width="17.9" height="17.9"/>
  <rect class="cls-6" x="279.1" y="143" width="17.9" height="17.9"/>
  <rect class="cls-6" x="296.9" y="143" width="17.9" height="17.9"/>
  <rect class="cls-6" x="243.5" y="160.8" width="17.9" height="17.9"/>
  <rect class="cls-6" x="261.3" y="160.8" width="17.9" height="17.9"/>
  <rect class="cls-6" x="421.6" y="160.8" width="17.9" height="17.9"/>
  <rect class="cls-6" x="439.5" y="160.8" width="17.9" height="17.9"/>
  <rect class="cls-6" x="225.7" y="178.7" width="17.9" height="17.9"/>
  <rect class="cls-6" x="457.2" y="178.7" width="17.9" height="17.9"/>
  <rect class="cls-6" x="225.7" y="196.4" width="17.9" height="17.9"/>
  <g>
    <rect class="cls-18" x="179.5" y="276" width="14.6" height="14.6"/>
    <polygon class="cls-18" points="150.2 290.8 150.2 305.4 164.8 305.4 179.5 305.4 179.5 290.8 164.8 290.8 150.2 290.8"/>
    <rect class="cls-18" x="506.2" y="276" width="14.6" height="14.6"/>
    <polygon class="cls-18" points="535.5 290.8 520.8 290.8 520.8 305.4 535.5 305.4 550.1 305.4 550.1 290.8 535.5 290.8"/>
    <rect class="cls-18" x="350.3" y="178.7" width="17.9" height="17.9"/>
    <polygon class="cls-18" points="368.2 196.4 368.2 214.2 386 214.2 403.8 214.2 403.8 196.4 386 196.4 368.2 196.4"/>
  </g>
  <rect class="cls-6" x="457.2" y="196.4" width="17.9" height="17.9"/>
  <rect class="cls-6" x="225.7" y="214.2" width="17.9" height="17.9"/>
  <rect class="cls-6" x="457.2" y="214.2" width="17.9" height="17.9"/>
  <rect class="cls-6" x="207.9" y="232.1" width="17.9" height="17.9"/>
  <rect class="cls-6" x="207.9" y="249.8" width="17.9" height="17.9"/>
  <rect class="cls-9" x="314.7" y="249.8" width="17.9" height="17.9"/>
  <rect class="cls-9" x="368.2" y="249.8" width="17.9" height="17.9"/>
  <rect class="cls-6" x="207.9" y="267.7" width="17.9" height="17.9"/>
  <rect class="cls-9" x="314.7" y="267.7" width="17.9" height="17.9"/>
  <rect class="cls-9" x="368.2" y="267.7" width="17.9" height="17.9"/>
  <rect class="cls-6" x="207.9" y="285.4" width="17.9" height="17.9"/>
  <rect class="cls-6" x="225.7" y="303.3" width="17.9" height="17.9"/>
  <rect class="cls-6" x="225.7" y="321.1" width="17.9" height="17.9"/>
  <rect class="cls-6" x="225.7" y="339" width="17.9" height="17.9"/>
  <rect class="cls-6" x="243.5" y="356.7" width="17.9" height="17.9"/>
  <g>
    <polygon class="cls-2" points="350.3 160.8 368.2 160.8 386 160.8 386 143 368.2 143 350.3 143 332.6 143 314.7 143 314.7 160.8 332.6 160.8 350.3 160.8"/>
    <rect class="cls-2" x="279.1" y="160.8" width="17.9" height="17.9"/>
    <rect class="cls-2" x="403.8" y="160.8" width="17.9" height="17.9"/>
    <polygon class="cls-2" points="261.3 196.4 261.3 178.7 243.5 178.7 243.5 196.4 243.5 214.2 261.3 214.2 261.3 196.4"/>
    <polygon class="cls-2" points="457.2 196.4 457.2 178.7 439.5 178.7 439.5 196.4 439.5 214.2 457.2 214.2 457.2 196.4"/>
    <polygon class="cls-2" points="457.2 232.1 457.2 249.8 457.2 267.7 439.5 267.7 439.5 285.4 421.6 285.4 421.6 303.3 403.8 303.3 403.8 321.1 386 321.1 368.2 321.1 350.3 321.1 350.3 339 332.6 339 314.7 339 296.9 339 279.1 339 261.3 339 261.3 321.1 243.5 321.1 243.5 339 243.5 356.7 261.3 356.7 279.1 356.7 296.9 356.7 314.7 356.7 314.7 374.6 332.6 374.6 350.3 374.6 368.2 374.6 386 374.6 403.8 374.6 421.6 374.6 421.6 356.7 439.5 356.7 439.5 339 439.5 321.1 457.2 321.1 457.2 303.3 475.1 303.3 475.1 285.4 475.1 267.7 475.1 249.8 475.1 232.1 457.2 232.1"/>
    <polygon class="cls-2" points="243.5 285.4 243.5 267.7 243.5 249.8 243.5 232.1 225.7 232.1 225.7 249.8 225.7 267.7 225.7 285.4 225.7 303.3 243.5 303.3 243.5 285.4"/>
  </g>
  <rect class="cls-6" x="261.3" y="374.6" width="17.9" height="17.9"/>
  <rect class="cls-6" x="279.1" y="374.6" width="17.9" height="17.9"/>
  <rect class="cls-6" x="350.3" y="374.6" width="17.9" height="17.9"/>
  <rect class="cls-6" x="279.1" y="392.4" width="17.9" height="17.9"/>
  <rect class="cls-6" x="332.6" y="392.4" width="17.9" height="17.9"/>
  <g>
    <polygon class="cls-5" points="314.7 125.1 314.7 143 332.6 143 350.3 143 350.3 125.1 332.6 125.1 314.7 125.1"/>
    <polygon class="cls-5" points="421.6 160.8 421.6 143 403.8 143 386 143 386 160.8 403.8 160.8 421.6 160.8"/>
    <polygon class="cls-5" points="475.1 232.1 475.1 249.8 475.1 267.7 475.1 285.4 475.1 303.3 492.9 303.3 492.9 285.4 492.9 267.7 492.9 249.8 492.9 232.1 475.1 232.1"/>
    <polygon class="cls-5" points="457.2 321.1 457.2 339 457.2 356.7 475.1 356.7 475.1 339 475.1 321.1 475.1 303.3 457.2 303.3 457.2 321.1"/>
    <rect class="cls-5" x="439.5" y="356.7" width="17.9" height="17.9"/>
    <polygon class="cls-5" points="403.8 374.6 403.8 392.4 421.6 392.4 439.5 392.4 439.5 374.6 421.6 374.6 403.8 374.6"/>
    <polygon class="cls-5" points="368.2 392.4 368.2 410.2 386 410.2 403.8 410.2 403.8 392.4 386 392.4 368.2 392.4"/>
  </g>
  <rect class="cls-6" x="296.9" y="410.2" width="17.9" height="17.9"/>
  <rect class="cls-6" x="314.7" y="410.2" width="17.9" height="17.9"/>
  <rect class="cls-8" x="350.3" y="410.2" width="17.9" height="17.9"/>
  <rect class="cls-8" x="368.2" y="410.2" width="17.9" height="17.9"/>
  <rect class="cls-8" x="314.7" y="428" width="17.9" height="17.9"/>
  <rect class="cls-8" x="332.6" y="445.9" width="17.9" height="17.9"/>
  <rect class="cls-8" x="350.3" y="445.9" width="17.9" height="17.9"/>
  <rect class="cls-8" x="368.2" y="445.9" width="17.9" height="17.9"/>
  <g>
    <path class="cls-12" d="M439.5,196.4v-17.9h-35.6v-17.9h-106.9v17.9h-35.6v35.6h-17.9v106.9h17.9v17.9h89v-17.9h53.4v-17.9h17.9v-17.9h17.9v-17.9h17.9v-53.4h-17.9v-17.9h0v.2ZM368.2,178.7v17.9h35.6v17.9h-35.6v-17.9h-17.9v-17.9h17.9ZM386,285.4h-17.9v-35.6h17.9v35.6ZM314.7,285.4v-35.6h17.9v35.6h-17.9Z"/>
    <polygon class="cls-12" points="439.5 339 439.5 356.7 457.2 356.7 457.2 339 457.2 321.1 439.5 321.1 439.5 339"/>
    <rect class="cls-12" x="421.6" y="356.7" width="17.9" height="17.9"/>
    <polygon class="cls-12" points="386 374.6 368.2 374.6 350.3 374.6 332.6 374.6 314.7 374.6 314.7 356.7 296.9 356.7 279.1 356.7 261.3 356.7 261.3 374.6 279.1 374.6 279.1 392.4 296.9 392.4 296.9 410.2 314.7 410.2 332.6 410.2 332.6 392.4 350.3 392.4 368.2 392.4 386 392.4 403.8 392.4 421.6 392.4 421.6 374.6 403.8 374.6 386 374.6"/>
    <polygon class="cls-12" points="359.3 71.8 359.3 53.9 359.3 36.1 341.5 36.1 341.5 53.9 341.5 71.8 341.5 89.5 359.3 89.5 359.3 71.8"/>
    <rect class="cls-12" x="273.3" y="71.8" width="17.9" height="17.8"/>
    <rect class="cls-12" x="185.2" y="169.7" width="17.9" height="17.9"/>
    <rect class="cls-12" x="498" y="169.7" width="17.9" height="17.9"/>
    <polygon class="cls-12" points="595.7 205.4 595.7 187.5 577.9 187.5 577.9 205.4 560 205.4 560 223.1 577.9 223.1 577.9 241 595.7 241 595.7 223.1 613.6 223.1 613.6 205.4 595.7 205.4"/>
    <rect class="cls-12" x="225.7" y="116.2" width="17.9" height="17.9"/>
    <rect class="cls-12" x="207.3" y="98.4" width="17.9" height="17.8"/>
    <rect class="cls-12" x="456.9" y="116.2" width="17.9" height="17.9"/>
    <rect class="cls-12" x="475.2" y="98.4" width="17.9" height="17.8"/>
    <rect class="cls-12" x="409.3" y="71.8" width="17.9" height="17.8"/>
  </g>
  <g>
    <rect class="cls-17" x="350.3" y="392.4" width="17.9" height="17.9"/>
    <polygon class="cls-17" points="368.2 463.6 350.3 463.6 332.6 463.6 332.6 445.9 314.7 445.9 314.7 463.6 314.7 481.5 332.6 481.5 350.3 481.5 368.2 481.5 386 481.5 386 463.6 368.2 463.6"/>
  </g>
  <g>
    <polygon class="cls-15" points="386 410.2 386 428 368.2 428 350.3 428 350.3 410.2 332.6 410.2 332.6 428 332.6 445.9 350.3 445.9 368.2 445.9 386 445.9 386 463.6 386 481.5 403.8 481.5 403.8 463.6 403.8 445.9 403.8 428 403.8 410.2 386 410.2"/>
    <polygon class="cls-15" points="314.7 445.9 314.7 428 296.9 428 296.9 445.9 296.9 463.6 296.9 481.5 314.7 481.5 314.7 463.6 314.7 445.9"/>
    <polygon class="cls-15" points="350.3 481.5 332.6 481.5 314.7 481.5 314.7 499.3 332.6 499.3 350.3 499.3 368.2 499.3 386 499.3 386 481.5 368.2 481.5 350.3 481.5"/>
  </g>
  <path class="cls-1" d="M308.6,535.4c1.7-5.3,13.9-2.5,14.8-3.1,1.1-1.1-3.1-15,5.3-14.8h96.6c12.2,5.6-3.9,18.6,17.8,14.8v12.5h-84v20.9h68.2c4.2,0,3.3,13.4,3.1,16.7.8.8,14.8-4.7,14.8,1.1v62.9c0,4.5-13.4,1.7-15.9,5-2.2,3.1,0,12.8-.8,12.8h-107.1c4.2-20.3-9.7-9.7-12.5-12.5-.6-.6.6-12,0-14.8h86v-20.9h-71.5v-16.7h-11.4c-3.1.6,0,15.3-1.4,16.7-3.1,3.1-40.9-1.7-48.1,0v-18.9h46.2c3.1-15.3-3.9-49,0-61.8h.3Z"/>
  <path class="cls-1" d="M216.2,576.3c.6-5.3-2.5-16.7,3.3-18.6,9.7.6,74.6-2.2,76.5,1.1,1.9,3.9,1.9,13.1,1.9,17.5,0,0-81.8,0-81.8,0Z"/>
  <rect class="cls-1" x="249.8" y="519.8" width="48.1" height="16.7"/>
  <path class="cls-1" d="M296,635.1c-.8,9.5,4.2,17.5-7.2,18.9-18.1,2.2-30.6,2.8-26.4-18.9h33.7Z"/>
  <path class="cls-1" d="M230.9,517.6v20.9h-16.7c-.6-16.7-2.8-23.7,16.7-20.9Z"/>
  <rect class="cls-1" x="230.9" y="597.5" width="17" height="18.9"/>
  <path class="cls-1" d="M184.7,576.3v-18.9c21.2-5,21.2,23.9,0,18.9Z"/>
  <path class="cls-1" d="M367.3,577.5c2.5-3.1,22.3-2.8,23.1-2.2.8.8-.6,15.6,0,18.9-2.5-6.4-1.4-16.1-2.2-16.7-.8-.8-20.3-.8-21.2,0h.3Z"/>
  <path class="cls-1" d="M392.6,598.3l-2.2-2.2c.6.6,1.9,1.9,2.2,2.2Z"/>
</svg>