<?xml version="1.0" encoding="UTF-8"?>
<svg id="_圖層_2" data-name=" 圖層 2" xmlns="http://www.w3.org/2000/svg" version="1.1" viewBox="0 0 695 708.2">
  <defs>
    <style>
      .cls-1 {
        fill: #231815;
      }

      .cls-1, .cls-2, .cls-3, .cls-4, .cls-5, .cls-6, .cls-7, .cls-8, .cls-9, .cls-10, .cls-11, .cls-12, .cls-13, .cls-14, .cls-15, .cls-16, .cls-17, .cls-18, .cls-19 {
        stroke-width: 0px;
      }

      .cls-2 {
        fill: #e4be44;
      }

      .cls-3 {
        fill: #e889a8;
      }

      .cls-4 {
        fill: #954a82;
      }

      .cls-5 {
        fill: #977326;
      }

      .cls-6 {
        fill: #987426;
      }

      .cls-7 {
        fill: #944a82;
      }

      .cls-8 {
        fill: #89898a;
      }

      .cls-9 {
        fill: #40230f;
      }

      .cls-10 {
        fill: #302040;
      }

      .cls-11 {
        fill: #193f21;
      }

      .cls-12 {
        fill: #ebcf58;
      }

      .cls-13 {
        fill: #74bfdd;
      }

      .cls-14 {
        fill: #076fb8;
      }

      .cls-15 {
        fill: #9fa0a0;
      }

      .cls-16 {
        fill: #64c4d3;
      }

      .cls-17 {
        fill: #b5b6b6;
      }

      .cls-18 {
        fill: #fff;
      }

      .cls-19 {
        fill: #df76a7;
      }
    </style>
  </defs>
  <circle class="cls-18" cx="349" cy="355.6" r="337.5"/>
  <g id="_圖層_1-2" data-name=" 圖層 1-2">
    <g>
      <rect class="cls-4" x="208.9" y="252.4" width="12.1" height="12.1"/>
      <rect class="cls-4" x="196.7" y="252.4" width="12.1" height="12.1"/>
      <rect class="cls-4" x="257.5" y="264.5" width="12.1" height="12.1"/>
      <rect class="cls-4" x="245.3" y="264.5" width="12.1" height="12.1"/>
      <rect class="cls-4" x="281.7" y="276.7" width="12.1" height="12.1"/>
      <rect class="cls-4" x="269.6" y="276.7" width="12.1" height="12.1"/>
      <rect class="cls-4" x="160.3" y="276.7" width="12.1" height="12.1"/>
      <rect class="cls-4" x="148.2" y="276.7" width="12.1" height="12.1"/>
      <rect class="cls-4" x="293.9" y="288.8" width="12.1" height="12.1"/>
      <rect class="cls-4" x="136" y="288.8" width="12.1" height="12.1"/>
      <rect class="cls-4" x="293.9" y="301" width="12.1" height="12.1"/>
      <rect class="cls-4" x="136" y="301" width="12.1" height="12.1"/>
      <rect class="cls-4" x="293.9" y="313.1" width="12.1" height="12.1"/>
      <rect class="cls-4" x="136" y="313.1" width="12.1" height="12.1"/>
      <rect class="cls-4" x="306" y="325.3" width="12.1" height="12.1"/>
      <rect class="cls-4" x="306" y="337.4" width="12.1" height="12.1"/>
      <rect class="cls-10" x="233.2" y="337.4" width="12.1" height="12.1"/>
      <rect class="cls-10" x="196.7" y="337.4" width="12.1" height="12.1"/>
      <rect class="cls-4" x="306" y="349.6" width="12.1" height="12.1"/>
      <rect class="cls-10" x="233.2" y="349.6" width="12.1" height="12.1"/>
      <rect class="cls-10" x="196.7" y="349.6" width="12.1" height="12.1"/>
      <rect class="cls-4" x="306" y="361.7" width="12.1" height="12.1"/>
      <g>
        <polygon class="cls-19" points="221 264.5 208.9 264.5 196.7 264.5 196.7 276.7 208.9 276.7 221 276.7 233.2 276.7 245.3 276.7 245.3 264.5 233.2 264.5 221 264.5"/>
        <rect class="cls-19" x="257.5" y="276.7" width="12.1" height="12.1"/>
        <rect class="cls-19" x="172.4" y="276.7" width="12.1" height="12.1"/>
        <polygon class="cls-19" points="148.2 301 148.2 313.1 160.3 313.1 160.3 301 160.3 288.8 148.2 288.8 148.2 301"/>
        <polygon class="cls-19" points="293.9 301 293.9 288.8 281.7 288.8 281.7 301 281.7 313.1 293.9 313.1 293.9 301"/>
        <polygon class="cls-19" points="293.9 325.3 293.9 337.4 293.9 349.6 293.9 361.7 293.9 373.8 306 373.8 306 361.7 306 349.6 306 337.4 306 325.3 293.9 325.3"/>
        <polygon class="cls-19" points="136 337.4 136 349.6 136 361.7 136 373.8 148.2 373.8 148.2 361.7 148.2 349.6 148.2 337.4 148.2 325.3 136 325.3 136 337.4"/>
      </g>
      <rect class="cls-4" x="293.9" y="373.8" width="12.1" height="12.1"/>
      <rect class="cls-4" x="293.9" y="386" width="12.1" height="12.1"/>
      <rect class="cls-4" x="293.9" y="398.1" width="12.1" height="12.1"/>
      <rect class="cls-4" x="281.7" y="410.3" width="12.1" height="12.1"/>
      <rect class="cls-4" x="269.6" y="422.4" width="12.1" height="12.1"/>
      <rect class="cls-4" x="257.5" y="422.4" width="12.1" height="12.1"/>
      <rect class="cls-4" x="208.9" y="422.4" width="12.1" height="12.1"/>
      <rect class="cls-4" x="257.5" y="434.6" width="12.1" height="12.1"/>
      <path class="cls-3" d="M281.7,313.1v-24.3h-24.3v-12.1h-72.9v12.1h-24.3v24.3h-12.1v97.2h12.1v12.1h12.1v12.1h60.7v12.1h24.3v-12.1h12.1v-12.1h12.1v-12.1h12.1v-97.2h-12.1,0ZM245.3,337.4v24.3h-12.1v-24.3h12.1ZM208.9,349.6v12.1h-12.1v-24.3h12.1v12.1h0ZM196.7,301h12.1v-12.1h12.1v12.1h-12.1v12.1h-24.3v-12.1h12.2Z"/>
      <rect class="cls-4" x="221" y="434.6" width="12.1" height="12.1"/>
      <g>
        <polygon class="cls-7" points="233.2 252.4 221 252.4 221 264.5 233.2 264.5 245.3 264.5 245.3 252.4 233.2 252.4"/>
        <polygon class="cls-7" points="196.7 276.7 196.7 264.5 184.6 264.5 172.4 264.5 172.4 276.7 184.6 276.7 196.7 276.7"/>
        <polygon class="cls-7" points="136 349.6 136 337.4 136 325.3 123.9 325.3 123.9 337.4 123.9 349.6 123.9 361.7 123.9 373.8 136 373.8 136 361.7 136 349.6"/>
        <polygon class="cls-7" points="148.2 386 148.2 373.8 136 373.8 136 386 136 398.1 136 410.3 148.2 410.3 148.2 398.1 148.2 386"/>
        <rect class="cls-7" x="148.2" y="410.3" width="12.1" height="12.1"/>
        <polygon class="cls-7" points="172.4 422.4 160.3 422.4 160.3 434.6 172.4 434.6 184.6 434.6 184.6 422.4 172.4 422.4"/>
        <polygon class="cls-7" points="184.6 434.6 184.6 446.7 196.7 446.7 208.9 446.7 208.9 434.6 196.7 434.6 184.6 434.6"/>
      </g>
      <rect class="cls-4" x="245.3" y="446.7" width="12.1" height="12.1"/>
      <rect class="cls-4" x="233.2" y="446.7" width="12.1" height="12.1"/>
      <rect class="cls-16" x="455" y="264.5" width="12.1" height="12.1"/>
      <rect class="cls-16" x="467.1" y="264.5" width="12.1" height="12.1"/>
      <rect class="cls-16" x="479.3" y="264.5" width="12.1" height="12.1"/>
      <rect class="cls-16" x="491.4" y="264.5" width="12.1" height="12.1"/>
      <rect class="cls-16" x="430.7" y="276.7" width="12.1" height="12.1"/>
      <rect class="cls-16" x="515.7" y="276.7" width="12.1" height="12.1"/>
      <rect class="cls-16" x="406.4" y="288.8" width="12.1" height="12.1"/>
      <rect class="cls-16" x="540" y="288.8" width="12.1" height="12.1"/>
      <rect class="cls-16" x="406.4" y="301" width="12.1" height="12.1"/>
      <rect class="cls-16" x="540" y="301" width="12.1" height="12.1"/>
      <rect class="cls-16" x="394.3" y="325.3" width="12.1" height="12.1"/>
      <rect class="cls-16" x="552.1" y="325.3" width="12.1" height="12.1"/>
      <rect class="cls-16" x="394.3" y="337.4" width="12.1" height="12.1"/>
      <rect class="cls-11" x="455" y="337.4" width="12.1" height="12.1"/>
      <rect class="cls-11" x="491.4" y="337.4" width="12.1" height="12.1"/>
      <rect class="cls-16" x="552.1" y="337.4" width="12.1" height="12.1"/>
      <rect class="cls-16" x="394.3" y="349.6" width="12.1" height="12.1"/>
      <rect class="cls-11" x="455" y="349.6" width="12.1" height="12.1"/>
      <rect class="cls-11" x="491.4" y="349.6" width="12.1" height="12.1"/>
      <rect class="cls-16" x="552.1" y="349.6" width="12.1" height="12.1"/>
      <rect class="cls-16" x="394.3" y="361.7" width="12.1" height="12.1"/>
      <rect class="cls-16" x="552.1" y="361.7" width="12.1" height="12.1"/>
      <path class="cls-13" d="M540,313.1v-24.3h-24.3v-12.1h-72.9v12.1h-24.3v24.3h-12.1v97.2h12.1v12.1h12.1v12.1h12.1v12.1h24.3v-12.1h60.7v-12.1h12.1v-12.1h12.1v-97.2h-12.1,0ZM503.6,349.6v12.1h-12.1v-24.3h12.1v12.1h0ZM467.1,337.4v24.3h-12.1v-24.3h12.1ZM491.4,288.8v12.1h24.3v12.1h-24.3v-12.1h-12.1v-12.1h12.1Z"/>
      <g>
        <polygon class="cls-14" points="479.3 264.5 491.4 264.5 503.6 264.5 503.6 252.4 491.4 252.4 479.3 252.4 467.1 252.4 455 252.4 455 264.5 467.1 264.5 479.3 264.5"/>
        <polygon class="cls-14" points="455 276.7 455 264.5 442.8 264.5 430.7 264.5 430.7 276.7 442.8 276.7 455 276.7"/>
        <polygon class="cls-14" points="515.7 276.7 527.8 276.7 527.8 264.5 515.7 264.5 503.6 264.5 503.6 276.7 515.7 276.7"/>
        <polygon class="cls-14" points="430.7 288.8 430.7 276.7 418.5 276.7 406.4 276.7 406.4 288.8 418.5 288.8 430.7 288.8"/>
        <polygon class="cls-14" points="540 288.8 552.1 288.8 552.1 276.7 540 276.7 527.8 276.7 527.8 288.8 540 288.8"/>
        <polygon class="cls-14" points="552.1 313.1 552.1 325.3 564.3 325.3 564.3 313.1 564.3 301 564.3 288.8 552.1 288.8 552.1 301 552.1 313.1"/>
        <polygon class="cls-14" points="406.4 313.1 406.4 301 406.4 288.8 394.3 288.8 394.3 301 394.3 313.1 394.3 325.3 406.4 325.3 406.4 313.1"/>
        <polygon class="cls-14" points="564.3 325.3 564.3 337.4 564.3 349.6 564.3 361.7 564.3 373.8 576.4 373.8 576.4 361.7 576.4 349.6 576.4 337.4 576.4 325.3 564.3 325.3"/>
        <polygon class="cls-14" points="394.3 349.6 394.3 337.4 394.3 325.3 382.1 325.3 382.1 337.4 382.1 349.6 382.1 361.7 382.1 373.8 394.3 373.8 394.3 361.7 394.3 349.6"/>
        <polygon class="cls-14" points="552.1 386 552.1 398.1 552.1 410.3 564.3 410.3 564.3 398.1 564.3 386 564.3 373.8 552.1 373.8 552.1 386"/>
        <polygon class="cls-14" points="406.4 386 406.4 373.8 394.3 373.8 394.3 386 394.3 398.1 394.3 410.3 406.4 410.3 406.4 398.1 406.4 386"/>
        <rect class="cls-14" x="406.4" y="410.3" width="12.1" height="12.1"/>
        <rect class="cls-14" x="540" y="410.3" width="12.1" height="12.1"/>
        <polygon class="cls-14" points="442.8 422.4 430.7 422.4 418.5 422.4 418.5 434.6 430.7 434.6 430.7 446.7 442.8 446.7 442.8 434.6 442.8 422.4"/>
        <rect class="cls-14" x="479.3" y="422.4" width="12.1" height="12.1"/>
        <polygon class="cls-14" points="515.7 422.4 515.7 434.6 527.8 434.6 540 434.6 540 422.4 527.8 422.4 515.7 422.4"/>
        <rect class="cls-14" x="467.1" y="434.6" width="12.1" height="12.1"/>
        <polygon class="cls-14" points="491.4 434.6 491.4 446.7 503.6 446.7 515.7 446.7 515.7 434.6 503.6 434.6 491.4 434.6"/>
        <polygon class="cls-14" points="442.8 446.7 442.8 458.9 455 458.9 467.1 458.9 467.1 446.7 455 446.7 442.8 446.7"/>
      </g>
      <rect class="cls-6" x="350.3" y="163.9" width="14.8" height="14.8"/>
      <rect class="cls-6" x="365.1" y="163.9" width="14.8" height="14.8"/>
      <rect class="cls-6" x="291.3" y="178.7" width="14.8" height="14.8"/>
      <rect class="cls-6" x="306.1" y="178.7" width="14.8" height="14.8"/>
      <rect class="cls-6" x="261.9" y="193.4" width="14.8" height="14.8"/>
      <rect class="cls-6" x="276.6" y="193.4" width="14.8" height="14.8"/>
      <rect class="cls-6" x="409.3" y="193.4" width="14.8" height="14.8"/>
      <rect class="cls-6" x="424.1" y="193.4" width="14.8" height="14.8"/>
      <rect class="cls-6" x="247.1" y="208.2" width="14.8" height="14.8"/>
      <rect class="cls-6" x="438.8" y="208.2" width="14.8" height="14.8"/>
      <rect class="cls-6" x="247.1" y="222.9" width="14.8" height="14.8"/>
      <g>
        <rect class="cls-18" x="208.9" y="288.8" width="12.1" height="12.1"/>
        <polygon class="cls-18" points="184.6 301 184.6 313.1 196.7 313.1 208.9 313.1 208.9 301 196.7 301 184.6 301"/>
        <rect class="cls-18" x="479.3" y="288.8" width="12.1" height="12.1"/>
        <polygon class="cls-18" points="503.6 301 491.4 301 491.4 313.1 503.6 313.1 515.7 313.1 515.7 301 503.6 301"/>
        <rect class="cls-18" x="350.3" y="208.2" width="14.8" height="14.8"/>
        <polygon class="cls-18" points="365.1 222.9 365.1 237.6 379.8 237.6 394.6 237.6 394.6 222.9 379.8 222.9 365.1 222.9"/>
      </g>
      <rect class="cls-6" x="438.8" y="222.9" width="14.8" height="14.8"/>
      <rect class="cls-6" x="247.1" y="237.6" width="14.8" height="14.8"/>
      <rect class="cls-6" x="438.8" y="237.6" width="14.8" height="14.8"/>
      <rect class="cls-6" x="232.4" y="252.4" width="14.8" height="14.8"/>
      <rect class="cls-6" x="232.4" y="267.1" width="14.8" height="14.8"/>
      <rect class="cls-9" x="320.8" y="267.1" width="14.8" height="14.8"/>
      <rect class="cls-9" x="365.1" y="267.1" width="14.8" height="14.8"/>
      <rect class="cls-6" x="232.4" y="281.9" width="14.8" height="14.8"/>
      <rect class="cls-9" x="320.8" y="281.9" width="14.8" height="14.8"/>
      <rect class="cls-9" x="365.1" y="281.9" width="14.8" height="14.8"/>
      <rect class="cls-6" x="232.4" y="296.6" width="14.8" height="14.8"/>
      <rect class="cls-6" x="247.1" y="311.4" width="14.8" height="14.8"/>
      <rect class="cls-6" x="247.1" y="326.1" width="14.8" height="14.8"/>
      <rect class="cls-6" x="247.1" y="340.9" width="14.8" height="14.8"/>
      <rect class="cls-6" x="261.9" y="355.6" width="14.8" height="14.8"/>
      <g>
        <polygon class="cls-2" points="350.3 193.4 365.1 193.4 379.8 193.4 379.8 178.7 365.1 178.7 350.3 178.7 335.6 178.7 320.8 178.7 320.8 193.4 335.6 193.4 350.3 193.4"/>
        <rect class="cls-2" x="291.3" y="193.4" width="14.8" height="14.8"/>
        <rect class="cls-2" x="394.6" y="193.4" width="14.8" height="14.8"/>
        <polygon class="cls-2" points="276.6 222.9 276.6 208.2 261.9 208.2 261.9 222.9 261.9 237.6 276.6 237.6 276.6 222.9"/>
        <polygon class="cls-2" points="438.8 222.9 438.8 208.2 424.1 208.2 424.1 222.9 424.1 237.6 438.8 237.6 438.8 222.9"/>
        <polygon class="cls-2" points="438.8 252.4 438.8 267.1 438.8 281.9 424.1 281.9 424.1 296.6 409.3 296.6 409.3 311.4 394.6 311.4 394.6 326.1 379.8 326.1 365.1 326.1 350.3 326.1 350.3 340.9 335.6 340.9 320.8 340.9 306.1 340.9 291.3 340.9 276.6 340.9 276.6 326.1 261.9 326.1 261.9 340.9 261.9 355.6 276.6 355.6 291.3 355.6 306.1 355.6 320.8 355.6 320.8 370.4 335.6 370.4 350.3 370.4 365.1 370.4 379.8 370.4 394.6 370.4 409.3 370.4 409.3 355.6 424.1 355.6 424.1 340.9 424.1 326.1 438.8 326.1 438.8 311.4 453.6 311.4 453.6 296.6 453.6 281.9 453.6 267.1 453.6 252.4 438.8 252.4"/>
        <polygon class="cls-2" points="261.9 296.6 261.9 281.9 261.9 267.1 261.9 252.4 247.1 252.4 247.1 267.1 247.1 281.9 247.1 296.6 247.1 311.4 261.9 311.4 261.9 296.6"/>
      </g>
      <rect class="cls-6" x="276.6" y="370.4" width="14.8" height="14.8"/>
      <rect class="cls-6" x="291.3" y="370.4" width="14.8" height="14.8"/>
      <rect class="cls-6" x="350.3" y="370.4" width="14.8" height="14.8"/>
      <rect class="cls-6" x="291.3" y="385.1" width="14.8" height="14.8"/>
      <rect class="cls-6" x="335.6" y="385.1" width="14.8" height="14.8"/>
      <g>
        <polygon class="cls-5" points="320.8 163.9 320.8 178.7 335.6 178.7 350.3 178.7 350.3 163.9 335.6 163.9 320.8 163.9"/>
        <polygon class="cls-5" points="409.3 193.4 409.3 178.7 394.6 178.7 379.8 178.7 379.8 193.4 394.6 193.4 409.3 193.4"/>
        <polygon class="cls-5" points="453.6 252.4 453.6 267.1 453.6 281.9 453.6 296.6 453.6 311.4 468.3 311.4 468.3 296.6 468.3 281.9 468.3 267.1 468.3 252.4 453.6 252.4"/>
        <polygon class="cls-5" points="438.8 326.1 438.8 340.9 438.8 355.6 453.6 355.6 453.6 340.9 453.6 326.1 453.6 311.4 438.8 311.4 438.8 326.1"/>
        <rect class="cls-5" x="424.1" y="355.6" width="14.8" height="14.8"/>
        <polygon class="cls-5" points="394.6 370.4 394.6 385.1 409.3 385.1 424.1 385.1 424.1 370.4 409.3 370.4 394.6 370.4"/>
        <polygon class="cls-5" points="365.1 385.1 365.1 399.9 379.8 399.9 394.6 399.9 394.6 385.1 379.8 385.1 365.1 385.1"/>
      </g>
      <rect class="cls-6" x="306.1" y="399.9" width="14.8" height="14.8"/>
      <rect class="cls-6" x="320.8" y="399.9" width="14.8" height="14.8"/>
      <rect class="cls-8" x="350.3" y="399.9" width="14.8" height="14.8"/>
      <rect class="cls-8" x="365.1" y="399.9" width="14.8" height="14.8"/>
      <rect class="cls-8" x="320.8" y="414.6" width="14.8" height="14.8"/>
      <rect class="cls-8" x="335.6" y="429.4" width="14.8" height="14.8"/>
      <rect class="cls-8" x="350.3" y="429.4" width="14.8" height="14.8"/>
      <rect class="cls-8" x="365.1" y="429.4" width="14.8" height="14.8"/>
      <g>
        <path class="cls-12" d="M424.1,222.9v-14.8h-29.5v-14.8h-88.5v14.8h-29.5v29.5h-14.8v88.5h14.8v14.8h73.7v-14.8h44.2v-14.8h14.8v-14.8h14.8v-14.8h14.8v-44.2h-14.8v-14.8h0ZM365.1,208.2v14.8h29.5v14.8h-29.5v-14.8h-14.8v-14.8s14.8,0,14.8,0ZM379.8,296.6h-14.8v-29.5h14.8v29.5ZM320.8,296.6v-29.5h14.8v29.5h-14.8Z"/>
        <polygon class="cls-12" points="424.1 340.9 424.1 355.6 438.8 355.6 438.8 340.9 438.8 326.1 424.1 326.1 424.1 340.9"/>
        <rect class="cls-12" x="409.3" y="355.6" width="14.8" height="14.8"/>
        <polygon class="cls-12" points="379.8 370.4 365.1 370.4 350.3 370.4 335.6 370.4 320.8 370.4 320.8 355.6 306.1 355.6 291.3 355.6 276.6 355.6 276.6 370.4 291.3 370.4 291.3 385.1 306.1 385.1 306.1 399.9 320.8 399.9 335.6 399.9 335.6 385.1 350.3 385.1 365.1 385.1 379.8 385.1 394.6 385.1 409.3 385.1 409.3 370.4 394.6 370.4 379.8 370.4"/>
        <polygon class="cls-12" points="357.7 119.7 357.7 104.9 357.7 90.2 343 90.2 343 104.9 343 119.7 343 134.4 357.7 134.4 357.7 119.7"/>
        <rect class="cls-12" x="286.5" y="119.7" width="14.8" height="14.7"/>
        <rect class="cls-12" x="213.6" y="200.8" width="14.8" height="14.8"/>
        <rect class="cls-12" x="472.5" y="200.8" width="14.8" height="14.8"/>
        <polygon class="cls-12" points="553.4 230.3 553.4 215.5 538.7 215.5 538.7 230.3 523.9 230.3 523.9 245 538.7 245 538.7 259.8 553.4 259.8 553.4 245 568.2 245 568.2 230.3 553.4 230.3"/>
        <rect class="cls-12" x="247.1" y="156.5" width="14.8" height="14.8"/>
        <rect class="cls-12" x="231.9" y="141.8" width="14.8" height="14.7"/>
        <rect class="cls-12" x="438.5" y="156.5" width="14.8" height="14.8"/>
        <rect class="cls-12" x="453.7" y="141.8" width="14.8" height="14.7"/>
        <rect class="cls-12" x="399.1" y="119.7" width="14.8" height="14.7"/>
      </g>
      <g>
        <rect class="cls-17" x="350.3" y="385.1" width="14.8" height="14.8"/>
        <polygon class="cls-17" points="365.1 444.1 350.3 444.1 335.6 444.1 335.6 429.4 320.8 429.4 320.8 444.1 320.8 458.9 335.6 458.9 350.3 458.9 365.1 458.9 379.8 458.9 379.8 444.1 365.1 444.1"/>
      </g>
      <g>
        <polygon class="cls-15" points="379.8 399.9 379.8 414.6 365.1 414.6 350.3 414.6 350.3 399.9 335.6 399.9 335.6 414.6 335.6 429.4 350.3 429.4 365.1 429.4 379.8 429.4 379.8 444.1 379.8 458.9 394.6 458.9 394.6 444.1 394.6 429.4 394.6 414.6 394.6 399.9 379.8 399.9"/>
        <polygon class="cls-15" points="320.8 429.4 320.8 414.6 306.1 414.6 306.1 429.4 306.1 444.1 306.1 458.9 320.8 458.9 320.8 444.1 320.8 429.4"/>
        <polygon class="cls-15" points="350.3 458.9 335.6 458.9 320.8 458.9 320.8 473.6 335.6 473.6 350.3 473.6 365.1 473.6 379.8 473.6 379.8 458.9 365.1 458.9 350.3 458.9"/>
      </g>
      <path class="cls-1" d="M577.2,493.2c.3.3-.7,4,.7,5,1.1.8,4.6.1,4.6.3v18.1c-1,.2-5-.3-5.3,0s.2,4.3,0,5.3c1.2-.5,6-1.4,6,.4v18.5c-6,0-6.6-1.3-6,5.3h-43.8v-52.8h43.8ZM565.1,514.3v-10.9c0,0-1-1.1-1.1-1.1h-13.2c-.8,4.3-.4,7.8,0,12.1h14.3ZM565.1,536.2v-11.7c0-1.6-13.3-1.6-14.4-.8-1.2.9-1.2,12.5.4,12.5h14,0Z"/>
      <path class="cls-1" d="M147.2,499.6c.6-1.9,5-.9,5.3-1.1.4-.4-1.1-5.4,1.9-5.3h34.7c4.4,2-1.4,6.7,6.4,5.3v4.5h-30.2v7.5h24.5c1.5,0,1.2,4.8,1.1,6,.3.3,5.3-1.7,5.3.4v22.6c0,1.6-4.8.6-5.7,1.8-.8,1.1,0,4.6-.3,4.6h-38.5c1.5-7.3-3.5-3.5-4.5-4.5-.2-.2.2-4.3,0-5.3h30.9v-7.5h-25.7v-6h-4.1c-1.1.2,0,5.5-.5,6-1.1,1.1-14.7-.6-17.3,0v-6.8h16.6c1.1-5.5-1.4-17.6,0-22.2h0Z"/>
      <path class="cls-1" d="M221.1,493.2v19.6c2.7.7,1.1-4.4,2.3-5.2l4.5.7c.3-1.5-.3-9.5,0-9.8.3-.3,5,.3,5.3,0s-.2-4.3,0-5.3h21.1v5.3c-1,.2-5-.3-5.3,0-.3.3.3,5.7,0,6s-5-.3-5.3,0c-1.2,1.1,3.1,9.2-5.3,7.5-1.1,6.6,4.4,3.5,5.7,5.2,1,1.5-.2,8.6.3,9.1.2.2,4.5-.4,4.5,1.1v13.2h5.3v5.3h-21.1c-.2-1,.3-5,0-5.3s-4.3.2-5.3,0v-12.8c-.9-.2-4.3.2-4.5,0-.4-.4,1.1-5.9-2.3-5.3v23.4h-17.3v-52.8h17.4Z"/>
      <path class="cls-1" d="M433.9,514.3h14.7c.5,0,1-1,1-1.7,0-2.5-.8-6.1-.6-9.3s1.4-6.7.8-10.1h17.4v50.9c0,.2-1,1.1-.8,1.9h-16.2c-.8,0-1.1-1.8-1.2-2.6-.7-6.2,1.8-13.6.8-20h-15.8v22.6h-17.4v-52.8h16.2c0,0,1.1,1,1.1,1.1v20h0Z"/>
      <path class="cls-1" d="M492.7,536.2h14c0,0,1.1-1,1.1-1.1v-41.9h17.4v47.5c-1,.2-5-.3-5.3,0s.2,4.3,0,5.3h-40c-.2-1,.2-5,0-5.3-.4-.4-4.7.9-4.5-1.9v-45.6h16.2c0,0,1.1,1,1.1,1.1v41.9h0Z"/>
      <polygon class="cls-1" points="303.4 494 303.4 536.2 328.3 536.2 328.3 545.3 286.8 545.3 286.8 494 303.4 494"/>
      <polygon class="cls-1" points="353.9 494 353.9 537 379.6 537 379.6 545.3 337.3 545.3 337.3 494 353.9 494"/>
      <rect class="cls-1" x="260.4" y="493.2" width="17.4" height="52.8"/>
      <path class="cls-1" d="M114,514.3c.2-1.9-.9-6,1.2-6.7,3.5.2,26.8-.8,27.5.4.7,1.4.7,4.7.7,6.3h-29.4Z"/>
      <rect class="cls-1" x="126.1" y="494" width="17.3" height="6"/>
      <path class="cls-1" d="M142.7,535.4c-.3,3.4,1.5,6.3-2.6,6.8-6.5.8-11,1-9.5-6.8h12.1Z"/>
      <path class="cls-1" d="M119.3,493.2v7.5h-6c-.2-6-1-8.5,6-7.5Z"/>
      <rect class="cls-1" x="119.3" y="521.9" width="6.1" height="6.8"/>
      <path class="cls-1" d="M102.7,514.3v-6.8c7.6-1.8,7.6,8.6,0,6.8Z"/>
      <path class="cls-1" d="M168.3,514.7c.9-1.1,8-1,8.3-.8.3.3-.2,5.6,0,6.8-.9-2.3-.5-5.8-.8-6-.3-.3-7.3-.3-7.6,0h0Z"/>
      <path class="cls-1" d="M177.4,522.2l-.8-.8c.2.2.7.7.8.8Z"/>
    </g>
  </g>
</svg>