<?xml version="1.0" encoding="UTF-8"?>
<svg id="_圖層_2" data-name=" 圖層 2" xmlns="http://www.w3.org/2000/svg" version="1.1" viewBox="0 0 588.6 599.9">
  <defs>
    <style>
      .cls-1 {
        fill: #231815;
      }

      .cls-1, .cls-2, .cls-3, .cls-4, .cls-5, .cls-6, .cls-7, .cls-8, .cls-9, .cls-10, .cls-11, .cls-12, .cls-13, .cls-14, .cls-15, .cls-16, .cls-17, .cls-18, .cls-19 {
        stroke-width: 0px;
      }

      .cls-2 {
        fill: #e4be44;
      }

      .cls-3 {
        fill: #e889a8;
      }

      .cls-4 {
        fill: #954a82;
      }

      .cls-5 {
        fill: #977326;
      }

      .cls-6 {
        fill: #987426;
      }

      .cls-7 {
        fill: #944a82;
      }

      .cls-8 {
        fill: #89898a;
      }

      .cls-9 {
        fill: #40230f;
      }

      .cls-10 {
        fill: #302040;
      }

      .cls-11 {
        fill: #193f21;
      }

      .cls-12 {
        fill: #ebcf58;
      }

      .cls-13 {
        fill: #74bfdd;
      }

      .cls-14 {
        fill: #076fb8;
      }

      .cls-15 {
        fill: #9fa0a0;
      }

      .cls-16 {
        fill: #64c4d3;
      }

      .cls-17 {
        fill: #b5b6b6;
      }

      .cls-18 {
        fill: #fff;
      }

      .cls-19 {
        fill: #df76a7;
      }
    </style>
  </defs>
  <g id="_圖層_1-2" data-name=" 圖層 1-2">
    <g>
      <rect class="cls-4" x="155.7" y="198.2" width="12.1" height="12.1"/>
      <rect class="cls-4" x="143.6" y="198.2" width="12.1" height="12.1"/>
      <rect class="cls-4" x="204.3" y="210.4" width="12.1" height="12.1"/>
      <rect class="cls-4" x="192.1" y="210.4" width="12.1" height="12.1"/>
      <rect class="cls-4" x="228.6" y="222.5" width="12.1" height="12.1"/>
      <rect class="cls-4" x="216.4" y="222.5" width="12.1" height="12.1"/>
      <rect class="cls-4" x="107.1" y="222.5" width="12.1" height="12.1"/>
      <rect class="cls-4" x="95" y="222.5" width="12.1" height="12.1"/>
      <rect class="cls-4" x="240.7" y="234.6" width="12.1" height="12.1"/>
      <rect class="cls-4" x="82.8" y="234.6" width="12.1" height="12.1"/>
      <rect class="cls-4" x="240.7" y="246.8" width="12.1" height="12.1"/>
      <rect class="cls-4" x="82.8" y="246.8" width="12.1" height="12.1"/>
      <rect class="cls-4" x="240.7" y="258.9" width="12.1" height="12.1"/>
      <rect class="cls-4" x="82.8" y="258.9" width="12.1" height="12.1"/>
      <rect class="cls-4" x="252.9" y="271.1" width="12.1" height="12.1"/>
      <rect class="cls-4" x="252.9" y="283.2" width="12.1" height="12.1"/>
      <rect class="cls-10" x="180" y="283.2" width="12.1" height="12.1"/>
      <rect class="cls-10" x="143.6" y="283.2" width="12.1" height="12.1"/>
      <rect class="cls-4" x="252.9" y="295.4" width="12.1" height="12.1"/>
      <rect class="cls-10" x="180" y="295.4" width="12.1" height="12.1"/>
      <rect class="cls-10" x="143.6" y="295.4" width="12.1" height="12.1"/>
      <rect class="cls-4" x="252.9" y="307.5" width="12.1" height="12.1"/>
      <g>
        <polygon class="cls-19" points="167.9 210.4 155.7 210.4 143.6 210.4 143.6 222.5 155.7 222.5 167.9 222.5 180 222.5 192.1 222.5 192.1 210.4 180 210.4 167.9 210.4"/>
        <rect class="cls-19" x="204.3" y="222.5" width="12.1" height="12.1"/>
        <rect class="cls-19" x="119.3" y="222.5" width="12.1" height="12.1"/>
        <polygon class="cls-19" points="95 246.8 95 258.9 107.1 258.9 107.1 246.8 107.1 234.6 95 234.6 95 246.8"/>
        <polygon class="cls-19" points="240.7 246.8 240.7 234.6 228.6 234.6 228.6 246.8 228.6 258.9 240.7 258.9 240.7 246.8"/>
        <polygon class="cls-19" points="240.7 271.1 240.7 283.2 240.7 295.4 240.7 307.5 240.7 319.7 252.9 319.7 252.9 307.5 252.9 295.4 252.9 283.2 252.9 271.1 240.7 271.1"/>
        <polygon class="cls-19" points="82.8 283.2 82.8 295.4 82.8 307.5 82.8 319.7 95 319.7 95 307.5 95 295.4 95 283.2 95 271.1 82.8 271.1 82.8 283.2"/>
      </g>
      <rect class="cls-4" x="240.7" y="319.7" width="12.1" height="12.1"/>
      <rect class="cls-4" x="240.7" y="331.8" width="12.1" height="12.1"/>
      <rect class="cls-4" x="240.7" y="344" width="12.1" height="12.1"/>
      <rect class="cls-4" x="228.6" y="356.1" width="12.1" height="12.1"/>
      <rect class="cls-4" x="216.4" y="368.2" width="12.1" height="12.1"/>
      <rect class="cls-4" x="204.3" y="368.2" width="12.1" height="12.1"/>
      <rect class="cls-4" x="155.7" y="368.2" width="12.1" height="12.1"/>
      <rect class="cls-4" x="204.3" y="380.4" width="12.1" height="12.1"/>
      <path class="cls-3" d="M228.6,258.9v-24.3h-24.3v-12.1h-72.9v12.1h-24.3v24.3h-12.1v97.2h12.1v12.1h12.1v12.1h60.7v12.1h24.3v-12.1h12.1v-12.1h12.1v-12.1h12.1v-97.2h-12.1,0ZM192.1,283.2v24.3h-12.1v-24.3h12.1ZM155.7,295.4v12.1h-12.1v-24.3h12.1v12.1h0ZM143.6,246.8h12.1v-12.1h12.1v12.1h-12.1v12.1h-24.3v-12.1h12.2Z"/>
      <rect class="cls-4" x="167.9" y="380.4" width="12.1" height="12.1"/>
      <g>
        <polygon class="cls-7" points="180 198.2 167.9 198.2 167.9 210.4 180 210.4 192.1 210.4 192.1 198.2 180 198.2"/>
        <polygon class="cls-7" points="143.6 222.5 143.6 210.4 131.4 210.4 119.3 210.4 119.3 222.5 131.4 222.5 143.6 222.5"/>
        <polygon class="cls-7" points="82.8 295.4 82.8 283.2 82.8 271.1 70.7 271.1 70.7 283.2 70.7 295.4 70.7 307.5 70.7 319.7 82.8 319.7 82.8 307.5 82.8 295.4"/>
        <polygon class="cls-7" points="95 331.8 95 319.7 82.8 319.7 82.8 331.8 82.8 344 82.8 356.1 95 356.1 95 344 95 331.8"/>
        <rect class="cls-7" x="95" y="356.1" width="12.1" height="12.1"/>
        <polygon class="cls-7" points="119.3 368.2 107.1 368.2 107.1 380.4 119.3 380.4 131.4 380.4 131.4 368.2 119.3 368.2"/>
        <polygon class="cls-7" points="131.4 380.4 131.4 392.5 143.6 392.5 155.7 392.5 155.7 380.4 143.6 380.4 131.4 380.4"/>
      </g>
      <rect class="cls-4" x="192.1" y="392.5" width="12.1" height="12.1"/>
      <rect class="cls-4" x="180" y="392.5" width="12.1" height="12.1"/>
      <rect class="cls-16" x="401.8" y="210.4" width="12.1" height="12.1"/>
      <rect class="cls-16" x="414" y="210.4" width="12.1" height="12.1"/>
      <rect class="cls-16" x="426.1" y="210.4" width="12.1" height="12.1"/>
      <rect class="cls-16" x="438.2" y="210.4" width="12.1" height="12.1"/>
      <rect class="cls-16" x="377.5" y="222.5" width="12.1" height="12.1"/>
      <rect class="cls-16" x="462.5" y="222.5" width="12.1" height="12.1"/>
      <rect class="cls-16" x="353.2" y="234.6" width="12.1" height="12.1"/>
      <rect class="cls-16" x="486.8" y="234.6" width="12.1" height="12.1"/>
      <rect class="cls-16" x="353.2" y="246.8" width="12.1" height="12.1"/>
      <rect class="cls-16" x="486.8" y="246.8" width="12.1" height="12.1"/>
      <rect class="cls-16" x="341.1" y="271.1" width="12.1" height="12.1"/>
      <rect class="cls-16" x="499" y="271.1" width="12.1" height="12.1"/>
      <rect class="cls-16" x="341.1" y="283.2" width="12.1" height="12.1"/>
      <rect class="cls-11" x="401.8" y="283.2" width="12.1" height="12.1"/>
      <rect class="cls-11" x="438.2" y="283.2" width="12.1" height="12.1"/>
      <rect class="cls-16" x="499" y="283.2" width="12.1" height="12.1"/>
      <rect class="cls-16" x="341.1" y="295.4" width="12.1" height="12.1"/>
      <rect class="cls-11" x="401.8" y="295.4" width="12.1" height="12.1"/>
      <rect class="cls-11" x="438.2" y="295.4" width="12.1" height="12.1"/>
      <rect class="cls-16" x="499" y="295.4" width="12.1" height="12.1"/>
      <rect class="cls-16" x="341.1" y="307.5" width="12.1" height="12.1"/>
      <rect class="cls-16" x="499" y="307.5" width="12.1" height="12.1"/>
      <path class="cls-13" d="M486.8,258.9v-24.3h-24.3v-12.1h-72.9v12.1h-24.3v24.3h-12.1v97.2h12.1v12.1h12.1v12.1h12.1v12.1h24.3v-12.1h60.7v-12.1h12.1v-12.1h12.1v-97.2h-12.1,0ZM450.4,295.4v12.1h-12.1v-24.3h12.1v12.1h0ZM414,283.2v24.3h-12.1v-24.3h12.1ZM438.2,234.6v12.1h24.3v12.1h-24.3v-12.1h-12.1v-12.1h12.1Z"/>
      <g>
        <polygon class="cls-14" points="426.1 210.4 438.2 210.4 450.4 210.4 450.4 198.2 438.2 198.2 426.1 198.2 414 198.2 401.8 198.2 401.8 210.4 414 210.4 426.1 210.4"/>
        <polygon class="cls-14" points="401.8 222.5 401.8 210.4 389.7 210.4 377.5 210.4 377.5 222.5 389.7 222.5 401.8 222.5"/>
        <polygon class="cls-14" points="462.5 222.5 474.7 222.5 474.7 210.4 462.5 210.4 450.4 210.4 450.4 222.5 462.5 222.5"/>
        <polygon class="cls-14" points="377.5 234.6 377.5 222.5 365.4 222.5 353.2 222.5 353.2 234.6 365.4 234.6 377.5 234.6"/>
        <polygon class="cls-14" points="486.8 234.6 499 234.6 499 222.5 486.8 222.5 474.7 222.5 474.7 234.6 486.8 234.6"/>
        <polygon class="cls-14" points="499 258.9 499 271.1 511.1 271.1 511.1 258.9 511.1 246.8 511.1 234.6 499 234.6 499 246.8 499 258.9"/>
        <polygon class="cls-14" points="353.2 258.9 353.2 246.8 353.2 234.6 341.1 234.6 341.1 246.8 341.1 258.9 341.1 271.1 353.2 271.1 353.2 258.9"/>
        <polygon class="cls-14" points="511.1 271.1 511.1 283.2 511.1 295.4 511.1 307.5 511.1 319.7 523.3 319.7 523.3 307.5 523.3 295.4 523.3 283.2 523.3 271.1 511.1 271.1"/>
        <polygon class="cls-14" points="341.1 295.4 341.1 283.2 341.1 271.1 328.9 271.1 328.9 283.2 328.9 295.4 328.9 307.5 328.9 319.7 341.1 319.7 341.1 307.5 341.1 295.4"/>
        <polygon class="cls-14" points="499 331.8 499 344 499 356.1 511.1 356.1 511.1 344 511.1 331.8 511.1 319.7 499 319.7 499 331.8"/>
        <polygon class="cls-14" points="353.2 331.8 353.2 319.7 341.1 319.7 341.1 331.8 341.1 344 341.1 356.1 353.2 356.1 353.2 344 353.2 331.8"/>
        <rect class="cls-14" x="353.2" y="356.1" width="12.1" height="12.1"/>
        <rect class="cls-14" x="486.8" y="356.1" width="12.1" height="12.1"/>
        <polygon class="cls-14" points="389.7 368.2 377.5 368.2 365.4 368.2 365.4 380.4 377.5 380.4 377.5 392.5 389.7 392.5 389.7 380.4 389.7 368.2"/>
        <rect class="cls-14" x="426.1" y="368.2" width="12.1" height="12.1"/>
        <polygon class="cls-14" points="462.5 368.2 462.5 380.4 474.7 380.4 486.8 380.4 486.8 368.2 474.7 368.2 462.5 368.2"/>
        <rect class="cls-14" x="414" y="380.4" width="12.1" height="12.1"/>
        <polygon class="cls-14" points="438.2 380.4 438.2 392.5 450.4 392.5 462.5 392.5 462.5 380.4 450.4 380.4 438.2 380.4"/>
        <polygon class="cls-14" points="389.7 392.5 389.7 404.7 401.8 404.7 414 404.7 414 392.5 401.8 392.5 389.7 392.5"/>
      </g>
      <rect class="cls-6" x="297.2" y="109.7" width="14.8" height="14.8"/>
      <rect class="cls-6" x="311.9" y="109.7" width="14.8" height="14.8"/>
      <rect class="cls-6" x="238.2" y="124.5" width="14.8" height="14.8"/>
      <rect class="cls-6" x="252.9" y="124.5" width="14.8" height="14.8"/>
      <rect class="cls-6" x="208.7" y="139.2" width="14.8" height="14.8"/>
      <rect class="cls-6" x="223.4" y="139.2" width="14.8" height="14.8"/>
      <rect class="cls-6" x="356.2" y="139.2" width="14.8" height="14.8"/>
      <rect class="cls-6" x="370.9" y="139.2" width="14.8" height="14.8"/>
      <rect class="cls-6" x="193.9" y="154" width="14.8" height="14.8"/>
      <rect class="cls-6" x="385.7" y="154" width="14.8" height="14.8"/>
      <rect class="cls-6" x="193.9" y="168.7" width="14.8" height="14.8"/>
      <g>
        <rect class="cls-18" x="155.7" y="234.6" width="12.1" height="12.1"/>
        <polygon class="cls-18" points="131.4 246.8 131.4 258.9 143.6 258.9 155.7 258.9 155.7 246.8 143.6 246.8 131.4 246.8"/>
        <rect class="cls-18" x="426.1" y="234.6" width="12.1" height="12.1"/>
        <polygon class="cls-18" points="450.4 246.8 438.2 246.8 438.2 258.9 450.4 258.9 462.5 258.9 462.5 246.8 450.4 246.8"/>
        <rect class="cls-18" x="297.2" y="154" width="14.8" height="14.8"/>
        <polygon class="cls-18" points="311.9 168.7 311.9 183.5 326.7 183.5 341.4 183.5 341.4 168.7 326.7 168.7 311.9 168.7"/>
      </g>
      <rect class="cls-6" x="385.7" y="168.7" width="14.8" height="14.8"/>
      <rect class="cls-6" x="193.9" y="183.5" width="14.8" height="14.8"/>
      <rect class="cls-6" x="385.7" y="183.5" width="14.8" height="14.8"/>
      <rect class="cls-6" x="179.2" y="198.2" width="14.8" height="14.8"/>
      <rect class="cls-6" x="179.2" y="213" width="14.8" height="14.8"/>
      <rect class="cls-9" x="267.7" y="213" width="14.8" height="14.8"/>
      <rect class="cls-9" x="311.9" y="213" width="14.8" height="14.8"/>
      <rect class="cls-6" x="179.2" y="227.7" width="14.8" height="14.8"/>
      <rect class="cls-9" x="267.7" y="227.7" width="14.8" height="14.8"/>
      <rect class="cls-9" x="311.9" y="227.7" width="14.8" height="14.8"/>
      <rect class="cls-6" x="179.2" y="242.5" width="14.8" height="14.8"/>
      <rect class="cls-6" x="193.9" y="257.2" width="14.8" height="14.8"/>
      <rect class="cls-6" x="193.9" y="272" width="14.8" height="14.8"/>
      <rect class="cls-6" x="193.9" y="286.7" width="14.8" height="14.8"/>
      <rect class="cls-6" x="208.7" y="301.4" width="14.8" height="14.8"/>
      <g>
        <polygon class="cls-2" points="297.2 139.2 311.9 139.2 326.7 139.2 326.7 124.5 311.9 124.5 297.2 124.5 282.4 124.5 267.7 124.5 267.7 139.2 282.4 139.2 297.2 139.2"/>
        <rect class="cls-2" x="238.2" y="139.2" width="14.8" height="14.8"/>
        <rect class="cls-2" x="341.4" y="139.2" width="14.8" height="14.8"/>
        <polygon class="cls-2" points="223.4 168.7 223.4 154 208.7 154 208.7 168.7 208.7 183.5 223.4 183.5 223.4 168.7"/>
        <polygon class="cls-2" points="385.7 168.7 385.7 154 370.9 154 370.9 168.7 370.9 183.5 385.7 183.5 385.7 168.7"/>
        <polygon class="cls-2" points="385.7 198.2 385.7 213 385.7 227.7 370.9 227.7 370.9 242.5 356.2 242.5 356.2 257.2 341.4 257.2 341.4 272 326.7 272 311.9 272 297.2 272 297.2 286.7 282.4 286.7 267.7 286.7 252.9 286.7 238.2 286.7 223.4 286.7 223.4 272 208.7 272 208.7 286.7 208.7 301.4 223.4 301.4 238.2 301.4 252.9 301.4 267.7 301.4 267.7 316.2 282.4 316.2 297.2 316.2 311.9 316.2 326.7 316.2 341.4 316.2 356.2 316.2 356.2 301.4 370.9 301.4 370.9 286.7 370.9 272 385.7 272 385.7 257.2 400.4 257.2 400.4 242.5 400.4 227.7 400.4 213 400.4 198.2 385.7 198.2"/>
        <polygon class="cls-2" points="208.7 242.5 208.7 227.7 208.7 213 208.7 198.2 193.9 198.2 193.9 213 193.9 227.7 193.9 242.5 193.9 257.2 208.7 257.2 208.7 242.5"/>
      </g>
      <rect class="cls-6" x="223.4" y="316.2" width="14.8" height="14.8"/>
      <rect class="cls-6" x="238.2" y="316.2" width="14.8" height="14.8"/>
      <rect class="cls-6" x="297.2" y="316.2" width="14.8" height="14.8"/>
      <rect class="cls-6" x="238.2" y="330.9" width="14.8" height="14.8"/>
      <rect class="cls-6" x="282.4" y="330.9" width="14.8" height="14.8"/>
      <g>
        <polygon class="cls-5" points="267.7 109.7 267.7 124.5 282.4 124.5 297.2 124.5 297.2 109.7 282.4 109.7 267.7 109.7"/>
        <polygon class="cls-5" points="356.2 139.2 356.2 124.5 341.4 124.5 326.7 124.5 326.7 139.2 341.4 139.2 356.2 139.2"/>
        <polygon class="cls-5" points="400.4 198.2 400.4 213 400.4 227.7 400.4 242.5 400.4 257.2 415.1 257.2 415.1 242.5 415.1 227.7 415.1 213 415.1 198.2 400.4 198.2"/>
        <polygon class="cls-5" points="385.7 272 385.7 286.7 385.7 301.4 400.4 301.4 400.4 286.7 400.4 272 400.4 257.2 385.7 257.2 385.7 272"/>
        <rect class="cls-5" x="370.9" y="301.4" width="14.8" height="14.8"/>
        <polygon class="cls-5" points="341.4 316.2 341.4 330.9 356.2 330.9 370.9 330.9 370.9 316.2 356.2 316.2 341.4 316.2"/>
        <polygon class="cls-5" points="311.9 330.9 311.9 345.7 326.7 345.7 341.4 345.7 341.4 330.9 326.7 330.9 311.9 330.9"/>
      </g>
      <rect class="cls-6" x="252.9" y="345.7" width="14.8" height="14.8"/>
      <rect class="cls-6" x="267.7" y="345.7" width="14.8" height="14.8"/>
      <rect class="cls-8" x="297.2" y="345.7" width="14.8" height="14.8"/>
      <rect class="cls-8" x="311.9" y="345.7" width="14.8" height="14.8"/>
      <rect class="cls-8" x="267.7" y="360.4" width="14.8" height="14.8"/>
      <rect class="cls-8" x="282.4" y="375.2" width="14.8" height="14.8"/>
      <rect class="cls-8" x="297.2" y="375.2" width="14.8" height="14.8"/>
      <rect class="cls-8" x="311.9" y="375.2" width="14.8" height="14.8"/>
      <g>
        <path class="cls-12" d="M370.9,168.7v-14.8h-29.5v-14.8h-88.5v14.8h-29.5v29.5h-14.8v88.5h14.8v14.8h73.7v-14.8h44.2v-14.8h14.8v-14.8h14.8v-14.8h14.8v-44.2h-14.8v-14.8h0ZM311.9,154v14.8h29.5v14.8h-29.5v-14.8h-14.8v-14.8s14.8,0,14.8,0ZM326.7,242.5h-14.8v-29.5h14.8v29.5ZM267.7,242.5v-29.5h14.8v29.5h-14.8Z"/>
        <polygon class="cls-12" points="370.9 286.7 370.9 301.4 385.7 301.4 385.7 286.7 385.7 272 370.9 272 370.9 286.7"/>
        <rect class="cls-12" x="356.2" y="301.4" width="14.8" height="14.8"/>
        <polygon class="cls-12" points="326.7 316.2 311.9 316.2 297.2 316.2 282.4 316.2 267.7 316.2 267.7 301.4 252.9 301.4 238.2 301.4 223.4 301.4 223.4 316.2 238.2 316.2 238.2 330.9 252.9 330.9 252.9 345.7 267.7 345.7 282.4 345.7 282.4 330.9 297.2 330.9 311.9 330.9 326.7 330.9 341.4 330.9 356.2 330.9 356.2 316.2 341.4 316.2 326.7 316.2"/>
        <polygon class="cls-12" points="304.5 65.5 304.5 50.7 304.5 36 289.8 36 289.8 50.7 289.8 65.5 289.8 80.2 304.5 80.2 304.5 65.5"/>
        <rect class="cls-12" x="233.3" y="65.5" width="14.8" height="14.7"/>
        <rect class="cls-12" x="160.5" y="146.6" width="14.8" height="14.8"/>
        <rect class="cls-12" x="419.3" y="146.6" width="14.8" height="14.8"/>
        <polygon class="cls-12" points="500.3 176.1 500.3 161.3 485.5 161.3 485.5 176.1 470.8 176.1 470.8 190.8 485.5 190.8 485.5 205.6 500.3 205.6 500.3 190.8 515 190.8 515 176.1 500.3 176.1"/>
        <rect class="cls-12" x="193.9" y="102.4" width="14.8" height="14.8"/>
        <rect class="cls-12" x="178.7" y="87.6" width="14.8" height="14.7"/>
        <rect class="cls-12" x="385.3" y="102.4" width="14.8" height="14.8"/>
        <rect class="cls-12" x="400.5" y="87.6" width="14.8" height="14.7"/>
        <rect class="cls-12" x="345.9" y="65.5" width="14.8" height="14.7"/>
      </g>
      <g>
        <rect class="cls-17" x="297.2" y="330.9" width="14.8" height="14.8"/>
        <polygon class="cls-17" points="311.9 389.9 297.2 389.9 282.4 389.9 282.4 375.2 267.7 375.2 267.7 389.9 267.7 404.7 282.4 404.7 297.2 404.7 311.9 404.7 326.7 404.7 326.7 389.9 311.9 389.9"/>
      </g>
      <g>
        <polygon class="cls-15" points="326.7 345.7 326.7 360.4 311.9 360.4 297.2 360.4 297.2 345.7 282.4 345.7 282.4 360.4 282.4 375.2 297.2 375.2 311.9 375.2 326.7 375.2 326.7 389.9 326.7 404.7 341.4 404.7 341.4 389.9 341.4 375.2 341.4 360.4 341.4 345.7 326.7 345.7"/>
        <polygon class="cls-15" points="267.7 375.2 267.7 360.4 252.9 360.4 252.9 375.2 252.9 389.9 252.9 404.7 267.7 404.7 267.7 389.9 267.7 375.2"/>
        <polygon class="cls-15" points="297.2 404.7 282.4 404.7 267.7 404.7 267.7 419.4 282.4 419.4 297.2 419.4 311.9 419.4 326.7 419.4 326.7 404.7 311.9 404.7 297.2 404.7"/>
      </g>
      <path class="cls-1" d="M524,439c.3.3-.7,4,.7,5,1.1.8,4.6.1,4.6.3v18.1c-1,.2-5-.3-5.3,0s.2,4.3,0,5.3c1.2-.5,6-1.4,6,.4v18.5c-6,0-6.6-1.3-6,5.3h-43.8v-52.8h43.8ZM512,460.1v-10.9c0,0-1-1.1-1.1-1.1h-13.2c-.8,4.3-.4,7.8,0,12.1h14.3ZM512,482v-11.7c0-1.6-13.3-1.6-14.4-.8-1.2.9-1.2,12.5.4,12.5h14,0Z"/>
      <path class="cls-1" d="M94,445.4c.6-1.9,5-.9,5.3-1.1.4-.4-1.1-5.4,1.9-5.3h34.7c4.4,2-1.4,6.7,6.4,5.3v4.5h-30.2v7.5h24.5c1.5,0,1.2,4.8,1.1,6,.3.3,5.3-1.7,5.3.4v22.6c0,1.6-4.8.6-5.7,1.8-.8,1.1,0,4.6-.3,4.6h-38.5c1.5-7.3-3.5-3.5-4.5-4.5-.2-.2.2-4.3,0-5.3h30.9v-7.5h-25.7v-6h-4.1c-1.1.2,0,5.5-.5,6-1.1,1.1-14.7-.6-17.3,0v-6.8h16.6c1.1-5.5-1.4-17.6,0-22.2h0Z"/>
      <path class="cls-1" d="M168,439v19.6c2.7.7,1.1-4.4,2.3-5.2l4.5.7c.3-1.5-.3-9.5,0-9.8.3-.3,5,.3,5.3,0s-.2-4.3,0-5.3h21.1v5.3c-1,.2-5-.3-5.3,0-.3.3.3,5.7,0,6s-5-.3-5.3,0c-1.2,1.1,3.1,9.2-5.3,7.5-1.1,6.6,4.4,3.5,5.7,5.2,1,1.5-.2,8.6.3,9.1.2.2,4.5-.4,4.5,1.1v13.2h5.3v5.3h-21.1c-.2-1,.3-5,0-5.3s-4.3.2-5.3,0v-12.8c-.9-.2-4.3.2-4.5,0-.4-.4,1.1-5.9-2.3-5.3v23.4h-17.3v-52.8h17.4Z"/>
      <path class="cls-1" d="M380.7,460.1h14.7c.5,0,1-1,1-1.7,0-2.5-.8-6.1-.6-9.3s1.4-6.7.8-10.1h17.4v50.9c0,.2-1,1.1-.8,1.9h-16.2c-.8,0-1.1-1.8-1.2-2.6-.7-6.2,1.8-13.6.8-20h-15.8v22.6h-17.4v-52.8h16.2c0,0,1.1,1,1.1,1.1v20h0Z"/>
      <path class="cls-1" d="M439.5,482h14c0,0,1.1-1,1.1-1.1v-41.9h17.4v47.5c-1,.2-5-.3-5.3,0s.2,4.3,0,5.3h-40c-.2-1,.2-5,0-5.3-.4-.4-4.7.9-4.5-1.9v-45.6h16.2c0,0,1.1,1,1.1,1.1v41.9h0Z"/>
      <polygon class="cls-1" points="250.2 439.8 250.2 482 275.1 482 275.1 491.1 233.6 491.1 233.6 439.8 250.2 439.8"/>
      <polygon class="cls-1" points="300.7 439.8 300.7 482.8 326.4 482.8 326.4 491.1 284.1 491.1 284.1 439.8 300.7 439.8"/>
      <rect class="cls-1" x="207.2" y="439" width="17.4" height="52.8"/>
      <path class="cls-1" d="M60.8,460.1c.2-1.9-.9-6,1.2-6.7,3.5.2,26.8-.8,27.5.4.7,1.4.7,4.7.7,6.3h-29.4Z"/>
      <rect class="cls-1" x="72.9" y="439.8" width="17.3" height="6"/>
      <path class="cls-1" d="M89.5,481.3c-.3,3.4,1.5,6.3-2.6,6.8-6.5.8-11,1-9.5-6.8h12.1Z"/>
      <path class="cls-1" d="M66.1,439v7.5h-6c-.2-6-1-8.5,6-7.5Z"/>
      <rect class="cls-1" x="66.1" y="467.7" width="6.1" height="6.8"/>
      <path class="cls-1" d="M49.5,460.1v-6.8c7.6-1.8,7.6,8.6,0,6.8Z"/>
      <path class="cls-1" d="M115.2,460.5c.9-1.1,8-1,8.3-.8.3.3-.2,5.6,0,6.8-.9-2.3-.5-5.8-.8-6-.3-.3-7.3-.3-7.6,0h0Z"/>
      <path class="cls-1" d="M124.2,468l-.8-.8c.2.2.7.7.8.8Z"/>
    </g>
  </g>
</svg>